<svg width="64" height="64" viewBox="0 0 64 64" fill="none" xmlns="http://www.w3.org/2000/svg">
<g clip-path="url(#clip0_237_173)">
<path d="M32.0159 64C15.0315 63.9984 0.681121 50.2051 0.0263712 33.2525C0.0101601 32.8345 0.00207528 32.4162 0.00212117 31.9979C0.00212117 23.4513 3.33062 15.4159 9.37425 9.37212C15.418 3.3285 23.4534 0 32 0C40.5466 0 48.582 3.3285 54.6257 9.37212C60.6694 15.4159 63.9979 23.4513 63.9979 31.9979C63.9979 36.5443 63.0636 40.937 61.2209 45.0545C59.4409 49.0317 56.908 52.5525 53.6924 55.5187C50.8682 58.124 47.6041 60.1865 43.991 61.6493C40.3756 63.1126 36.5951 63.9006 32.7544 63.9914C32.506 63.9972 32.2656 64 32.0195 64H32.0159Z" fill="white"/>
<path d="M62.795 31.9979C62.795 40.9489 58.9758 49.0085 52.8769 54.6345C47.4184 59.6699 40.153 62.6133 32.7261 62.7886C16.1234 63.1808 1.86825 49.7748 1.22825 33.2061C1.21275 32.8036 1.205 32.4008 1.205 31.9979C1.205 14.9909 14.993 1.20288 32 1.20288C49.007 1.20288 62.795 14.9909 62.795 31.9979Z" fill="#E36352"/>
<path d="M43.6384 31.8931C50.1859 31.8931 55.4936 26.5853 55.4936 20.0379C55.4936 13.4904 50.1859 8.18262 43.6384 8.18262C37.0909 8.18262 31.7831 13.4904 31.7831 20.0379C31.7831 26.5853 37.0909 31.8931 43.6384 31.8931Z" fill="#FFC063"/>
<path d="M26.2026 50.8262C30.8322 46.1964 30.8321 38.69 26.2023 34.0604C21.5724 29.4307 14.0661 29.4308 9.43642 34.0607C4.80673 38.6905 4.80687 46.1968 9.43671 50.8265C14.0666 55.4562 21.5729 55.4561 26.2026 50.8262Z" fill="#FFC063"/>
<path d="M23.5764 12.1158C23.5764 9.07289 21.0272 6.60626 17.8826 6.60626C14.738 6.60626 12.1889 9.07301 12.1889 12.1158C12.1889 13.7305 13.2035 15.1824 14.4956 16.1898C15.3765 16.8765 15.9776 17.8424 16.1455 18.9248L16.2041 19.3026H19.8902L19.8945 19.2306C19.9642 18.0608 20.5222 16.9644 21.4522 16.2138C22.6962 15.2096 23.5764 13.7506 23.5764 12.1158Z" fill="#FFC063"/>
<path d="M19.336 17.4365C19.5308 17.0521 19.791 16.6904 20.0425 16.3404C20.1855 16.1418 20.3333 15.9361 20.469 15.7269C20.9493 14.9869 21.1608 14.3339 21.1156 13.7304C21.081 13.2651 20.8646 12.8984 20.5369 12.7491C20.1696 12.5819 19.7579 12.713 19.4533 12.9174C19.3914 12.7516 19.2956 12.5693 19.1383 12.4266C18.7146 12.0426 18.0395 12.1271 17.6319 12.4309C17.3506 12.6405 17.1725 12.9273 17.0595 13.2106C16.936 13.1225 16.8038 13.0603 16.6654 13.0264C16.0128 12.8678 15.3716 13.3751 15.1821 13.9491C15.0195 14.4415 15.0829 15.0106 15.3759 15.689C15.7128 16.4689 16.2253 17.1613 16.6821 17.7359L16.7094 17.7701C16.9603 18.0854 17.2163 18.4074 17.3768 18.7505H15.6776V20.2368H16.5991V21.362C16.5991 22.1476 17.2573 22.7845 18.0691 22.7845C18.881 22.7845 19.5391 22.1476 19.5391 21.362V20.2368H20.2851V18.7505H19.0179C18.9904 18.2258 19.1879 17.7289 19.336 17.4365ZM19.1731 15.0348C19.1431 15.1119 19.0803 15.2421 18.9951 15.2481C18.8899 15.2546 18.8251 15.0846 18.8071 14.9755C18.7134 14.4028 18.9104 13.7941 19.3151 13.3673C19.4271 13.9253 19.3779 14.5037 19.1731 15.0348ZM17.162 13.7776C17.1676 13.7464 17.174 13.7143 17.1811 13.6813C17.2607 13.7857 17.3294 13.898 17.3861 14.0164C17.5751 14.4081 17.6671 14.8396 17.6544 15.2744C17.6503 15.4085 17.6235 15.4896 17.5726 15.5223C17.5131 15.5603 17.414 15.5288 17.3589 15.4753C17.2851 15.4038 17.2481 15.2924 17.219 15.1826C17.0978 14.7241 17.0784 14.2445 17.162 13.7776ZM17.6519 18.7505C17.4806 18.3333 17.1823 17.9571 16.9078 17.6121L16.8805 17.578C16.434 17.0166 15.9338 16.3411 15.6086 15.5885C15.3414 14.9696 15.2806 14.4595 15.4229 14.0286C15.5738 13.5716 16.0965 13.1485 16.6051 13.2728C16.7468 13.3073 16.8694 13.3773 16.974 13.464C16.9492 13.5525 16.9287 13.6421 16.9125 13.7325C16.8222 14.236 16.8432 14.7531 16.9739 15.2476C17.0121 15.3928 17.064 15.5426 17.1823 15.6574C17.3076 15.7789 17.5348 15.8475 17.7094 15.7359C17.8978 15.6153 17.9054 15.3645 17.9079 15.2823C17.9218 14.8067 17.8212 14.3347 17.6145 13.9061C17.516 13.702 17.3973 13.5278 17.2635 13.388C17.3596 13.1144 17.5189 12.8309 17.7834 12.6339C18.1016 12.3968 18.6453 12.3218 18.9679 12.6141C19.0854 12.7206 19.1738 12.8713 19.2423 13.0835C18.71 13.5686 18.4423 14.3156 18.557 15.0161C18.5988 15.2701 18.7546 15.5181 19.0129 15.5008C19.1306 15.4924 19.295 15.4208 19.4095 15.1261C19.6498 14.5029 19.6923 13.8208 19.5311 13.1725C19.7724 12.9918 20.1344 12.8443 20.4318 12.9794C20.7906 13.1429 20.8523 13.6096 20.8628 13.7488C20.9035 14.2949 20.7053 14.8966 20.2564 15.5883C20.1238 15.7926 19.9778 15.9956 19.8366 16.192C19.5794 16.5499 19.3134 16.9198 19.1098 17.3215C18.9495 17.6378 18.7383 18.1734 18.7646 18.7503H17.6519V18.7505Z" fill="#412945"/>
<path d="M48.6579 33.1654C48.8676 33.4151 50.3576 35.2887 50.0457 37.6282C50.0361 37.6999 49.6322 37.4099 49.6191 37.4827C49.6065 37.5525 49.9847 37.985 49.9687 38.0551C49.8864 38.4197 49.7634 38.7739 49.602 39.111C48.3616 41.7224 45.3741 41.3841 44.354 41.1817H44.3529C44.1347 41.1385 43.3365 40.967 43.3365 40.967C43.3365 40.967 44.04 41.1859 44.0864 41.3409C44.3572 42.2492 45.0506 45.574 41.6921 48.1506C38.3315 50.7282 34.776 47.2042 33.817 46.1305C32.858 47.2044 29.3014 50.7282 25.9419 48.1506C22.6255 45.6077 23.2589 42.3357 23.5371 41.3767C23.5887 41.1997 24.0586 41.0299 24.0586 41.0299C24.0586 41.0299 23.5424 41.126 23.3927 41.1586H23.3917C22.5002 41.3525 19.3209 41.8267 18.032 39.1111C17.8874 38.8076 17.7731 38.4906 17.6906 38.1647C17.6732 38.0947 17.992 37.6192 17.9779 37.5501C17.963 37.4767 17.6155 37.8096 17.6041 37.737C17.249 35.4692 18.6126 33.6166 18.934 33.2172C18.9761 33.1645 19.4666 32.7879 19.4666 32.7879C19.4666 32.7879 18.8887 33.075 18.7106 32.9516C17.8412 32.351 15.4006 30.2992 16.74 26.9491C18.1057 23.5357 21.049 23.3177 21.9247 23.3314H21.9257C22.0849 23.3335 22.7939 23.7385 22.7939 23.7385C22.7939 23.7385 22.1332 23.2376 22.0806 23.05C21.7897 22.0162 21.168 18.526 25.4032 16.8862C26.5909 16.4267 27.709 16.3066 28.7227 16.391C28.8676 16.4026 29.2992 16.5975 29.4396 16.6175C29.58 16.6375 29.4289 16.4822 29.5647 16.5091C31.626 16.918 33.1572 18.1025 33.8169 18.6947C34.4914 18.0889 36.0794 16.8632 38.2124 16.4817H38.2134C38.3066 16.4651 38.0616 16.7655 38.1571 16.7521C38.3332 16.7275 38.8522 16.3932 39.0354 16.3816C40.0165 16.3174 41.0902 16.4459 42.2295 16.8864C46.5006 18.5397 45.8335 22.0754 45.5459 23.0754C45.4964 23.2471 45.0989 23.613 45.0989 23.613C45.0989 23.613 45.5901 23.3294 45.8146 23.3304C46.8 23.3377 49.5799 23.6612 50.894 26.9491C52.2197 30.2622 49.8455 32.3056 48.9529 32.9316C48.7579 33.0675 48.3074 32.7744 48.3074 32.7744C48.3074 32.7744 48.642 33.1466 48.6567 33.1645L48.6579 33.1654Z" fill="#F8BDFF"/>
<path d="M27.2034 24.7275C27.2267 24.7275 27.2497 24.7223 27.2708 24.7123C27.2919 24.7023 27.3105 24.6877 27.3253 24.6697C27.3401 24.6517 27.3507 24.6306 27.3564 24.608C27.3621 24.5854 27.3627 24.5618 27.3582 24.5389C27.1169 23.3049 27.3709 21.9907 28.0559 20.9359C28.7197 19.9136 29.7704 19.1634 30.9496 18.8609C31.2172 19.6722 31.2469 20.5659 31.0076 21.3805C31.0007 21.4041 30.9993 21.429 31.0036 21.4533C31.008 21.4775 31.0179 21.5004 31.0326 21.5202C31.0473 21.5399 31.0665 21.5559 31.0885 21.567C31.1105 21.578 31.1347 21.5838 31.1594 21.5839C31.2269 21.5839 31.29 21.5385 31.3101 21.4701C31.6959 20.1602 31.4376 18.6596 30.6377 17.5531C30.3447 17.1485 29.9781 16.7954 29.565 16.5089C29.2868 16.4533 29.0057 16.4139 28.723 16.3909C29.3795 16.6922 29.9612 17.157 30.3817 17.7387C30.5658 17.9948 30.7197 18.2714 30.8401 18.5629C29.5966 18.8896 28.4922 19.6841 27.7904 20.7642C27.0611 21.8876 26.7914 23.286 27.0485 24.6001C27.0557 24.636 27.075 24.6682 27.1032 24.6914C27.1314 24.7147 27.1668 24.7274 27.2034 24.7275Z" fill="#412945"/>
<path d="M21.9501 23.3417C21.9491 23.346 21.947 23.3501 21.9459 23.3543C21.9405 23.3744 21.9392 23.3954 21.942 23.4159C21.9447 23.4365 21.9516 23.4564 21.962 23.4743C21.9725 23.4922 21.9865 23.5079 22.003 23.5204C22.0196 23.5329 22.0385 23.542 22.0586 23.5472C22.751 23.7306 23.3737 24.228 23.7657 24.9118C24.1219 25.5315 24.2906 26.2913 24.2526 27.108C24.2474 27.2376 24.2357 27.3715 24.2252 27.5011C24.1936 27.8795 24.161 28.2703 24.2452 28.6571C24.4507 29.6013 25.4086 30.3622 26.473 30.4275C26.5299 30.4306 26.5867 30.4327 26.6437 30.4327C26.904 30.4327 27.1675 30.3958 27.4299 30.3263C27.4667 30.3632 27.5195 30.3811 27.5742 30.3685C28.3204 30.2072 29.1834 30.3675 29.9442 30.8111C30.5934 31.1895 31.1825 31.7563 31.7441 32.5446C31.7747 32.5878 31.8242 32.611 31.8727 32.611C31.9054 32.611 31.937 32.6015 31.9645 32.5815C31.9815 32.5696 31.996 32.5544 32.0071 32.5368C32.0182 32.5192 32.0257 32.4996 32.0291 32.4791C32.0326 32.4586 32.0319 32.4376 32.0271 32.4174C32.0223 32.3971 32.0136 32.378 32.0014 32.3612C31.4134 31.5351 30.7926 30.9386 30.1035 30.5381C29.5155 30.1956 28.8684 30.0091 28.2487 29.9932C28.5775 29.8096 28.8805 29.5832 29.1497 29.3198C29.8947 28.5958 30.3837 27.6442 30.7274 26.8961C30.7445 26.8579 30.7459 26.8145 30.7313 26.7752C30.7167 26.736 30.6873 26.7041 30.6494 26.6863C30.6112 26.6692 30.5678 26.6677 30.5285 26.6823C30.4893 26.6969 30.4573 26.7264 30.4396 26.7643C30.0876 27.5326 29.6324 28.4093 28.9295 29.0933C28.2107 29.792 27.3224 30.162 26.492 30.1123C25.5646 30.0555 24.731 29.401 24.554 28.5896C24.4802 28.2492 24.5097 27.8983 24.5404 27.5263C24.5509 27.3946 24.5625 27.2576 24.5689 27.1227C24.6089 26.2448 24.4266 25.4261 24.0409 24.7548C23.6974 24.1563 23.1925 23.6873 22.614 23.4155C23.1905 23.3828 23.7921 23.1183 24.2664 22.6652C24.885 22.0751 25.2347 21.2868 25.4961 20.5945C25.7358 19.9574 25.935 19.3059 26.0926 18.6438C26.1023 18.603 26.0954 18.5601 26.0735 18.5243C26.0516 18.4886 26.0164 18.463 25.9756 18.4531C25.9553 18.4483 25.9343 18.4476 25.9138 18.4509C25.8932 18.4542 25.8735 18.4616 25.8558 18.4726C25.8381 18.4835 25.8227 18.4979 25.8105 18.5148C25.7984 18.5317 25.7896 18.5508 25.7849 18.5711C25.6305 19.22 25.4351 19.8585 25.2 20.4827C24.9512 21.1423 24.6204 21.8906 24.0481 22.4365C23.478 22.9802 22.7097 23.2185 22.0806 23.0498C22.1334 23.2375 22.1755 23.3438 22.1755 23.3438C22.1755 23.3438 22.0849 23.3332 21.9257 23.3311C21.9342 23.3355 21.9416 23.3386 21.9501 23.3417ZM18.934 33.217C19.3597 33.0863 19.7529 32.7775 20.03 32.354C20.1311 32.198 20.2175 32.0252 20.2924 31.8366C20.3766 32.0221 20.4989 32.2117 20.6634 32.4046C21.3631 33.2276 22.3842 33.8293 23.5402 34.098C24.0302 34.2118 24.5425 34.2687 25.0714 34.2687C25.6531 34.2687 26.2569 34.1992 26.8766 34.0622C26.8969 34.0577 26.9161 34.0493 26.9331 34.0374C26.9501 34.0255 26.9646 34.0103 26.9758 33.9928C26.987 33.9753 26.9945 33.9558 26.9981 33.9353C27.0017 33.9148 27.0013 33.8939 26.9967 33.8736C26.9923 33.8533 26.9838 33.8341 26.9719 33.8171C26.96 33.8001 26.9449 33.7856 26.9273 33.7744C26.9098 33.7633 26.8903 33.7557 26.8698 33.7521C26.8494 33.7485 26.8284 33.749 26.8081 33.7535C25.67 34.0063 24.5951 34.018 23.6119 33.7893C22.5212 33.5365 21.5601 32.9716 20.9046 32.2002C20.6812 31.9377 20.5464 31.6902 20.4946 31.4605C20.6137 31.2803 20.7475 31.1042 20.8771 30.9336C21.0667 30.6848 21.2639 30.4267 21.4209 30.1442C21.9372 29.2168 21.9879 28.1198 22.031 27.1535C22.0352 27.066 21.9677 26.9922 21.8802 26.9881C21.8595 26.9869 21.8387 26.9899 21.8192 26.9969C21.7996 27.0039 21.7816 27.0147 21.7663 27.0288C21.751 27.0428 21.7387 27.0598 21.73 27.0787C21.7213 27.0975 21.7165 27.118 21.7159 27.1387C21.6726 28.0713 21.6252 29.1272 21.1447 29.9903C20.9982 30.2538 20.8181 30.4908 20.6262 30.7417C20.5967 30.7797 20.5682 30.8186 20.5387 30.8566C20.7316 29.5246 20.4829 28.1462 19.8316 26.966C19.8113 26.9293 19.7772 26.9022 19.737 26.8905C19.6967 26.8788 19.6534 26.8836 19.6166 26.9037C19.58 26.9241 19.5529 26.9582 19.5413 26.9984C19.5296 27.0387 19.5344 27.0819 19.5545 27.1187C20.1867 28.2632 20.4207 29.6036 20.2142 30.8935C20.2079 30.9325 20.2005 30.9693 20.1942 31.0073C20.1845 31.0237 20.1773 31.0414 20.1731 31.06C20.1667 31.099 20.1636 31.1368 20.1605 31.1758C20.072 31.5773 19.9424 31.9082 19.7642 32.1812C19.505 32.5806 19.1287 32.8588 18.7326 32.9442C18.7252 32.9463 18.7179 32.9485 18.7105 32.9516C18.8886 33.0748 19.0002 33.1371 19.0002 33.1371C19.0002 33.1371 18.9762 33.1643 18.934 33.217ZM32.3299 40.8818C30.9559 41.8426 29.3891 42.2122 28.0315 41.8955C27.5807 41.7903 27.1392 41.6073 26.7124 41.4303C26.436 41.3157 26.1501 41.1972 25.8601 41.0988C24.9122 40.7766 24.1079 40.769 23.4695 41.0758C23.4508 41.0849 23.434 41.0975 23.4202 41.1129C23.4064 41.1284 23.3957 41.1465 23.3889 41.166C23.382 41.1856 23.3791 41.2064 23.3802 41.2271C23.3814 41.2478 23.3866 41.2681 23.3956 41.2868C23.4046 41.3056 23.4172 41.3223 23.4327 41.3361C23.4482 41.35 23.4662 41.3606 23.4858 41.3675C23.5054 41.3743 23.5262 41.3773 23.5469 41.3761C23.5676 41.375 23.5879 41.3697 23.6066 41.3607C24.1675 41.0911 24.8915 41.1036 25.7585 41.3981C26.0379 41.493 26.3181 41.6092 26.5891 41.7216C26.5891 41.7235 26.5887 41.7252 26.5889 41.7271C26.5915 41.7669 26.609 41.8043 26.638 41.8317C26.667 41.8591 26.7053 41.8745 26.7452 41.8748C26.7516 41.8792 26.7647 41.89 26.7881 41.917C27.1197 42.3 27.358 42.7828 27.5885 43.2497C27.927 43.9357 28.2771 44.645 28.9351 45.0787C29.3505 45.3526 29.8899 45.5043 30.495 45.5177H30.4986C30.5395 45.5166 30.5784 45.4997 30.6071 45.4705C30.6358 45.4414 30.6521 45.4022 30.6526 45.3613C30.653 45.3204 30.6376 45.2809 30.6096 45.2511C30.5815 45.2213 30.543 45.2035 30.5021 45.2015C29.9564 45.1895 29.4747 45.0557 29.1092 44.8147C28.5227 44.4281 28.2067 43.7876 27.8721 43.1096C27.6827 42.726 27.4874 42.3327 27.237 41.98C27.4726 42.0673 27.7131 42.1456 27.9597 42.2032C28.3058 42.283 28.6598 42.3229 29.0149 42.3221C30.1771 42.322 31.4057 41.9136 32.5111 41.1407C32.5826 41.0907 32.6001 40.9921 32.5501 40.9206C32.526 40.8863 32.4893 40.863 32.448 40.8558C32.4067 40.8485 32.3643 40.8579 32.3299 40.8818ZM24.6425 37.5313C25.9112 38.0003 27.0367 38.2301 28.0832 38.2332C29.3574 38.2406 30.5534 37.8843 31.4534 37.2395C31.4703 37.2275 31.4847 37.2122 31.4957 37.1947C31.5067 37.1771 31.5142 37.1575 31.5176 37.137C31.521 37.1165 31.5204 37.0956 31.5157 37.0754C31.511 37.0552 31.5023 37.0361 31.4902 37.0192C31.4783 37.0023 31.463 36.9879 31.4455 36.9768C31.4279 36.9658 31.4083 36.9583 31.3878 36.9549C31.3673 36.9515 31.3464 36.9521 31.3262 36.9568C31.3059 36.9616 31.2869 36.9702 31.27 36.9823C30.428 37.5851 29.3046 37.9171 28.1054 37.9171H28.0832C27.295 37.914 26.4561 37.7758 25.5382 37.4987C26.9841 37.1552 28.3572 36.4343 29.449 35.4332C29.4778 35.4044 29.4943 35.3655 29.4951 35.3248C29.4959 35.284 29.481 35.2445 29.4534 35.2145C29.4259 35.1845 29.3878 35.1663 29.3471 35.1636C29.3064 35.161 29.2663 35.1741 29.2351 35.2003C28.0632 36.2742 26.5552 37.0161 24.9894 37.2901C24.9751 37.2929 24.9613 37.2975 24.9482 37.3038C24.8829 37.2807 24.8186 37.2596 24.7522 37.2353C24.4991 37.141 24.2472 37.0433 23.9966 36.9423C22.9281 36.5197 21.8247 36.0835 20.6571 36.1362C19.46 36.1921 18.3409 36.8128 17.6042 37.737C17.6264 37.8782 17.6547 38.0205 17.6906 38.1648C18.3671 37.1911 19.4926 36.5072 20.6719 36.4523C21.771 36.4018 22.8427 36.8265 23.8797 37.2365C24.1294 37.3353 24.3875 37.4376 24.6425 37.5313ZM36.5791 21.584C36.6037 21.5838 36.6279 21.5779 36.6499 21.5668C36.6718 21.5557 36.6909 21.5397 36.7056 21.52C36.7203 21.5003 36.7302 21.4775 36.7346 21.4533C36.739 21.4291 36.7377 21.4042 36.7309 21.3806C36.4906 20.566 36.5201 19.6723 36.7877 18.861C37.968 19.1635 39.0176 19.9137 39.6815 20.936C40.3665 21.9908 40.6205 23.305 40.3791 24.539C40.3746 24.5619 40.3752 24.5855 40.3809 24.6081C40.3867 24.6307 40.3973 24.6518 40.4121 24.6699C40.4269 24.6879 40.4456 24.7024 40.4666 24.7124C40.4877 24.7224 40.5108 24.7276 40.5341 24.7276C40.6079 24.7276 40.6742 24.675 40.689 24.6001C40.9472 23.286 40.6764 21.8876 39.9471 20.7642C39.2464 19.6841 38.1409 18.8895 36.8974 18.5628C37.018 18.2714 37.1718 17.9949 37.3557 17.7387C37.7805 17.1507 38.3706 16.6828 39.0355 16.3813C38.7598 16.3992 38.4854 16.4326 38.2135 16.4815H38.2125C37.7825 16.7733 37.4021 17.1358 37.0997 17.5532C36.2999 18.6597 36.0427 20.1603 36.4274 21.4702C36.4474 21.5387 36.5106 21.584 36.5791 21.584Z" fill="#412945"/>
<path d="M37.2977 26.7646C37.2802 26.7265 37.2483 26.697 37.209 26.6824C37.1697 26.6677 37.1263 26.6693 37.0881 26.6866C37.0502 26.7043 37.0207 26.7362 37.0061 26.7755C36.9915 26.8147 36.993 26.8581 37.0101 26.8963C37.3536 27.6446 37.8437 28.5961 38.5887 29.3201C38.858 29.5834 39.1609 29.8099 39.4897 29.9935C38.869 30.0093 38.222 30.1958 37.634 30.5383C36.9459 30.9388 36.3251 31.5352 35.7361 32.3603C35.7119 32.3946 35.7021 32.4371 35.709 32.4786C35.716 32.52 35.7389 32.557 35.773 32.5816C35.7898 32.5938 35.8089 32.6025 35.8292 32.6072C35.8494 32.6119 35.8704 32.6126 35.8909 32.6092C35.9114 32.6057 35.931 32.5983 35.9486 32.5872C35.9662 32.5761 35.9814 32.5617 35.9934 32.5447C36.5561 31.7565 37.1441 31.1895 37.7932 30.8112C38.5541 30.3676 39.4182 30.2073 40.1632 30.3686C40.218 30.3812 40.2717 30.3633 40.3087 30.3265C40.5701 30.396 40.8335 30.4328 41.0949 30.4328C41.1517 30.4328 41.2087 30.4307 41.2646 30.4276C42.329 30.3622 43.2869 29.6015 43.4924 28.6572C43.5767 28.2705 43.544 27.8795 43.5124 27.5012C43.5011 27.3703 43.492 27.2393 43.485 27.1081C43.4481 26.2913 43.6156 25.5316 43.9719 24.912C44.3639 24.2281 44.9867 23.7306 45.6801 23.5473C45.7206 23.5367 45.7553 23.5104 45.7764 23.4742C45.7975 23.4381 45.8035 23.395 45.7929 23.3545C45.7907 23.3502 45.7897 23.3461 45.7876 23.3418C45.797 23.3387 45.8062 23.3348 45.815 23.3302C45.5905 23.3292 45.4589 23.344 45.4589 23.344C45.4589 23.344 45.4967 23.247 45.5464 23.0752C44.9394 23.1901 44.227 22.9487 43.6906 22.4366C43.1174 21.8907 42.7865 21.1425 42.5377 20.4828C42.3031 19.8585 42.1078 19.22 41.9529 18.5712C41.9482 18.551 41.9395 18.5319 41.9275 18.5151C41.9154 18.4982 41.9001 18.4839 41.8825 18.4729C41.8649 18.462 41.8453 18.4546 41.8248 18.4512C41.8044 18.4478 41.7834 18.4485 41.7632 18.4532C41.743 18.458 41.7238 18.4667 41.7069 18.4788C41.69 18.491 41.6756 18.5064 41.6647 18.5241C41.6537 18.5418 41.6463 18.5615 41.643 18.5821C41.6397 18.6027 41.6404 18.6237 41.6452 18.644C41.8034 19.3059 42.0026 19.9574 42.2417 20.5946C42.5031 21.287 42.854 22.0752 43.4726 22.6653C43.9469 23.1185 44.5475 23.383 45.1239 23.4156C44.5454 23.6875 44.0405 24.1565 43.6981 24.755C43.3124 25.4262 43.1291 26.2451 43.1691 27.1228C43.1755 27.2577 43.187 27.3947 43.1976 27.5265C43.2292 27.8985 43.2577 28.2493 43.184 28.5897C43.0069 29.4012 42.1744 30.0556 41.246 30.1125C40.4156 30.162 39.5272 29.7921 38.8096 29.0935C38.105 28.4095 37.6509 27.5327 37.2977 26.7646ZM45.7061 27.1533C45.7504 28.1197 45.7999 29.2167 46.3162 30.1441C46.4732 30.4266 46.6702 30.6847 46.86 30.9335C46.9906 31.1042 47.1235 31.2802 47.2425 31.4603C47.1919 31.6901 47.056 31.9377 46.8325 32.2001C46.177 32.9715 45.216 33.5363 44.1252 33.7892C43.142 34.018 42.0671 34.0063 40.929 33.7533C40.9087 33.7488 40.8878 33.7484 40.8673 33.752C40.8468 33.7555 40.8273 33.7631 40.8098 33.7743C40.7923 33.7855 40.7771 33.8 40.7652 33.817C40.7533 33.834 40.7449 33.8532 40.7404 33.8735C40.7359 33.8937 40.7354 33.9147 40.739 33.9352C40.7426 33.9556 40.7502 33.9752 40.7613 33.9927C40.7725 34.0102 40.787 34.0254 40.804 34.0373C40.821 34.0492 40.8402 34.0576 40.8605 34.0621C41.4812 34.1991 42.084 34.2686 42.6667 34.2686C43.1957 34.2686 43.7069 34.2117 44.1969 34.0978C45.3529 33.8292 46.3741 33.2275 47.0737 32.4045C47.2381 32.2116 47.3604 32.022 47.4457 31.8365C47.5195 32.0251 47.6059 32.198 47.7081 32.3538C47.9516 32.728 48.2877 33.0125 48.6565 33.1642C48.6417 33.1463 48.6334 33.1368 48.6334 33.1368C48.6334 33.1368 48.7577 33.0673 48.9527 32.9313C48.5755 32.8343 48.2214 32.5625 47.9727 32.181C47.7946 31.9081 47.665 31.5771 47.5776 31.1756C47.5751 31.1368 47.5705 31.0981 47.5639 31.0597C47.5607 31.0409 47.5535 31.0229 47.5429 31.0071C47.5365 30.9691 47.5291 30.9322 47.5229 30.8932C47.3164 29.6033 47.5514 28.263 48.1825 27.1185C48.2028 27.0817 48.2076 27.0384 48.196 26.9981C48.1843 26.9578 48.1571 26.9237 48.1204 26.9035C48.0836 26.8834 48.0403 26.8787 48.0001 26.8904C47.9598 26.9021 47.9258 26.9291 47.9054 26.9657C47.2541 28.146 47.0054 29.5243 47.1982 30.8563C47.1697 30.8185 47.1402 30.7795 47.1119 30.7415C46.9201 30.4906 46.7389 30.2536 46.5924 29.9901C46.1119 29.1271 46.0644 28.0711 46.0222 27.1385C46.0214 27.1177 46.0164 27.0972 46.0076 27.0784C45.9988 27.0595 45.9864 27.0426 45.971 27.0286C45.9556 27.0146 45.9375 27.0037 45.9179 26.9968C45.8983 26.9898 45.8775 26.9867 45.8567 26.9878C45.836 26.9888 45.8156 26.9939 45.7968 27.0027C45.778 27.0115 45.7611 27.024 45.7471 27.0394C45.7331 27.0547 45.7223 27.0727 45.7153 27.0923C45.7082 27.1118 45.7051 27.1326 45.7061 27.1533ZM44.2677 41.0763C43.6301 40.7686 42.8251 40.7771 41.8776 41.0985C41.5879 41.1975 41.3022 41.3156 41.0251 41.4305C40.5984 41.6076 40.1567 41.7908 39.7057 41.8952C38.3484 42.2123 36.7814 41.8425 35.4082 40.8815C35.3738 40.8575 35.3313 40.8482 35.2901 40.8555C35.2488 40.8628 35.2121 40.8862 35.188 40.9205C35.176 40.9375 35.1675 40.9567 35.163 40.977C35.1584 40.9973 35.158 41.0182 35.1616 41.0387C35.1652 41.0592 35.1729 41.0788 35.1841 41.0963C35.1953 41.1138 35.2099 41.1289 35.227 41.1407C36.3314 41.9142 37.5601 42.3221 38.7225 42.3221C39.0829 42.3221 39.4359 42.2831 39.7784 42.2031C40.025 42.1462 40.2652 42.0671 40.5002 41.9807C40.2505 42.3327 40.0545 42.7268 39.8659 43.1105C39.5307 43.7881 39.2146 44.4288 38.6287 44.8156C38.2631 45.0558 37.7815 45.1897 37.2356 45.2023C37.1481 45.2033 37.0797 45.2761 37.0807 45.3636C37.0817 45.4049 37.0988 45.4442 37.1283 45.4731C37.1578 45.5021 37.1974 45.5183 37.2387 45.5185H37.243C37.8479 45.5048 38.3875 45.3531 38.8026 45.0791C39.4601 44.6448 39.8111 43.9357 40.1494 43.2497C40.3791 42.783 40.6172 42.3002 40.9492 41.9177C40.9724 41.8903 41.0564 41.815 41.1484 41.727C41.1494 41.7258 41.1484 41.7238 41.1484 41.7217C41.4192 41.6101 41.6995 41.4931 41.9787 41.3982C42.8239 41.1116 43.5321 41.0926 44.0864 41.3413C44.04 41.1865 44.0062 41.1021 44.0062 41.1021C44.0062 41.1021 44.1349 41.139 44.353 41.1822C44.3479 41.1592 44.3376 41.1376 44.3228 41.1193C44.308 41.1009 44.2892 41.0862 44.2677 41.0763ZM47.0804 36.1361C45.9137 36.0835 44.8094 36.5197 43.7419 36.9422C43.4931 37.0412 43.2371 37.1425 42.9852 37.2352C42.9189 37.2595 42.8546 37.2806 42.7892 37.3037C42.7766 37.2974 42.7631 37.2928 42.7492 37.29C41.1832 37.016 39.6752 36.2741 38.5024 35.2002C38.4715 35.1719 38.4306 35.157 38.3887 35.1588C38.3468 35.1606 38.3074 35.1789 38.279 35.2097C38.2508 35.2408 38.2361 35.2817 38.238 35.3236C38.24 35.3655 38.2585 35.4049 38.2895 35.4331C39.3812 36.4342 40.7544 37.1551 42.1991 37.4986C41.2812 37.7757 40.4424 37.9138 39.6541 37.917H39.632C38.4327 37.917 37.3105 37.585 36.4684 36.9822C36.4341 36.9578 36.3916 36.9479 36.3501 36.9548C36.3086 36.9618 36.2716 36.9849 36.2471 37.0191C36.2229 37.0532 36.2132 37.0956 36.2201 37.1368C36.227 37.1781 36.25 37.215 36.284 37.2393C37.185 37.8842 38.38 38.2405 39.6551 38.2331C40.7015 38.23 41.826 38.0002 43.0947 37.5312C43.3497 37.4375 43.608 37.3352 43.8577 37.2362C44.8947 36.8262 45.9675 36.4016 47.0666 36.4521C48.2005 36.5048 49.2859 37.1392 49.9687 38.055C50.0014 37.9116 50.0267 37.7683 50.0457 37.6282C49.3081 36.7642 48.23 36.1887 47.0804 36.1361Z" fill="#412945"/>
<path d="M35.8469 25.4455C35.8424 25.4872 35.8546 25.5289 35.8809 25.5616C35.9072 25.5942 35.9454 25.6151 35.9871 25.6196C36.0287 25.6241 36.0705 25.6118 36.1031 25.5855C36.1358 25.5592 36.1566 25.5211 36.1611 25.4794C36.2518 24.6485 36.376 23.8215 36.5335 23.0006C36.6685 23.096 36.7961 23.2013 36.9151 23.3159C37.4294 23.8136 37.7854 24.4704 38.1298 25.1053C38.4843 25.759 38.8508 26.435 39.3966 26.9658C39.4115 26.9803 39.4291 26.9917 39.4483 26.9994C39.4676 27.0071 39.4883 27.011 39.509 27.0107C39.5298 27.0104 39.5503 27.006 39.5694 26.9977C39.5884 26.9895 39.6057 26.9776 39.6201 26.9626C39.6346 26.9478 39.646 26.9302 39.6537 26.9109C39.6614 26.8916 39.6652 26.871 39.6649 26.8502C39.6646 26.8295 39.6602 26.809 39.652 26.7899C39.6438 26.7709 39.6319 26.7536 39.617 26.7391C39.1055 26.2419 38.7506 25.5875 38.4076 24.9545C38.0519 24.2985 37.6841 23.6201 37.1349 23.0885C36.3168 22.2966 35.1539 21.91 34.0246 22.0533C34.0072 22.0561 33.9904 22.0617 33.9749 22.07V18.6939C33.9733 18.653 33.9559 18.6144 33.9264 18.5861C33.8969 18.5578 33.8576 18.5419 33.8168 18.5419C33.7759 18.5419 33.7366 18.5578 33.7071 18.5861C33.6776 18.6144 33.6603 18.653 33.6586 18.6939V22.0479C32.5464 21.9234 31.4075 22.309 30.6024 23.0884C30.0533 23.62 29.6854 24.2983 29.3296 24.9544C28.9865 25.5873 28.6316 26.2418 28.1203 26.739C28.1054 26.7535 28.0935 26.7707 28.0853 26.7898C28.0771 26.8089 28.0727 26.8294 28.0724 26.8501C28.0721 26.8709 28.0759 26.8915 28.0836 26.9108C28.0913 26.9301 28.1027 26.9476 28.1171 26.9625C28.1316 26.9774 28.1489 26.9893 28.1679 26.9975C28.187 27.0057 28.2075 27.0101 28.2282 27.0104C28.249 27.0107 28.2696 27.0069 28.2889 26.9992C28.3082 26.9915 28.3257 26.9801 28.3406 26.9656C28.8866 26.4349 29.2531 25.7588 29.6075 25.1051C29.9519 24.4703 30.3079 23.8135 30.8221 23.3158C30.9413 23.2013 31.0689 23.0959 31.2039 23.0005C31.3614 23.8214 31.4857 24.6483 31.5764 25.4793C31.5786 25.4999 31.5849 25.5199 31.5948 25.5381C31.6048 25.5563 31.6182 25.5724 31.6344 25.5854C31.6505 25.5984 31.6691 25.6081 31.689 25.614C31.7089 25.6198 31.7298 25.6217 31.7504 25.6195C31.7711 25.6172 31.7911 25.611 31.8093 25.601C31.8275 25.5911 31.8436 25.5776 31.8566 25.5615C31.8696 25.5453 31.8793 25.5267 31.8852 25.5068C31.891 25.4869 31.8929 25.466 31.8906 25.4454C31.7947 24.5639 31.6614 23.6869 31.4911 22.8166C32.1426 22.4436 32.9186 22.2753 33.6585 22.3659V46.1305C33.6601 46.1714 33.6775 46.21 33.707 46.2383C33.7365 46.2667 33.7757 46.2825 33.8166 46.2825C33.8575 46.2825 33.8968 46.2667 33.9263 46.2383C33.9558 46.21 33.9731 46.1714 33.9748 46.1305V22.348C34.0021 22.3619 34.0323 22.3706 34.0644 22.367C34.8086 22.2724 35.5904 22.4411 36.246 22.8165C36.076 23.6868 35.9428 24.564 35.8469 25.4455Z" fill="#412945"/>
<path d="M43.2925 30.8812C43.3411 30.8812 43.3876 30.8619 43.422 30.8276C43.4563 30.7933 43.4756 30.7467 43.4756 30.6981C43.4756 30.6495 43.4563 30.603 43.422 30.5686C43.3876 30.5343 43.3411 30.515 43.2925 30.515H41.4831L41.4834 27.9824H43.2925C43.3411 27.9824 43.3876 27.9631 43.422 27.9287C43.4563 27.8944 43.4756 27.8478 43.4756 27.7992C43.4756 27.7507 43.4563 27.7041 43.422 27.6698C43.3876 27.6354 43.3411 27.6161 43.2925 27.6161H41.4834L41.4836 25.0952C41.4836 25.0312 41.4582 24.9697 41.4128 24.9244C41.3675 24.8791 41.3061 24.8536 41.242 24.8536L37.7712 24.8532V22.095C37.7712 22.0464 37.752 21.9998 37.7176 21.9655C37.6833 21.9312 37.6367 21.9119 37.5881 21.9119C37.5395 21.9119 37.493 21.9312 37.4586 21.9655C37.4243 21.9998 37.405 22.0464 37.405 22.095V24.8532L34.8724 24.853V22.095C34.8724 22.0464 34.8531 21.9998 34.8187 21.9655C34.7844 21.9312 34.7378 21.9119 34.6892 21.9119C34.6407 21.9119 34.5941 21.9312 34.5598 21.9655C34.5254 21.9998 34.5061 22.0464 34.5061 22.095V24.853L31.9735 24.8527V22.095C31.9735 22.0464 31.9542 21.9998 31.9199 21.9655C31.8855 21.9312 31.8389 21.9119 31.7904 21.9119C31.7418 21.9119 31.6952 21.9312 31.6609 21.9655C31.6265 21.9998 31.6072 22.0464 31.6072 22.095V24.8526L29.0746 24.8524V22.095C29.0746 22.0464 29.0553 21.9998 29.021 21.9655C28.9866 21.9312 28.9401 21.9119 28.8915 21.9119C28.8429 21.9119 28.7963 21.9312 28.762 21.9655C28.7277 21.9998 28.7084 22.0464 28.7084 22.095V24.8524L25.6865 24.8521C25.6548 24.8521 25.6233 24.8583 25.594 24.8705C25.5647 24.8826 25.538 24.9004 25.5156 24.9228C25.4932 24.9453 25.4754 24.9719 25.4632 25.0013C25.4511 25.0306 25.4449 25.062 25.4449 25.0937L25.4446 27.6162H23.1874C23.1388 27.6162 23.0922 27.6355 23.0579 27.6699C23.0235 27.7042 23.0042 27.7508 23.0042 27.7994C23.0042 27.8479 23.0235 27.8945 23.0579 27.9289C23.0922 27.9632 23.1388 27.9825 23.1874 27.9825H25.4446L25.4444 30.5151H23.1874C23.1388 30.5151 23.0922 30.5344 23.0579 30.5688C23.0235 30.6031 23.0042 30.6497 23.0042 30.6982C23.0042 30.7468 23.0235 30.7934 23.0579 30.8277C23.0922 30.8621 23.1388 30.8814 23.1874 30.8814H25.4444L25.4441 33.414H23.1874C23.1388 33.414 23.0922 33.4333 23.0579 33.4676C23.0235 33.502 23.0042 33.5485 23.0042 33.5971C23.0042 33.6457 23.0235 33.6923 23.0579 33.7266C23.0922 33.7609 23.1388 33.7802 23.1874 33.7802H25.444L25.4437 36.3129H23.1872C23.1387 36.3129 23.0921 36.3322 23.0578 36.3665C23.0234 36.4008 23.0041 36.4474 23.0041 36.496C23.0041 36.5446 23.0234 36.5911 23.0578 36.6255C23.0921 36.6598 23.1387 36.6791 23.1872 36.6791H25.4436L25.4434 39.2921C25.4434 39.4256 25.5515 39.5337 25.685 39.5337L28.7082 39.534V42.2001C28.7082 42.2487 28.7275 42.2953 28.7619 42.3296C28.7962 42.3639 28.8428 42.3832 28.8914 42.3832C28.9399 42.3832 28.9865 42.3639 29.0209 42.3296C29.0552 42.2953 29.0745 42.2487 29.0745 42.2001V39.534L31.6071 39.5342V42.2001C31.6071 42.2487 31.6264 42.2953 31.6608 42.3296C31.6951 42.3639 31.7417 42.3832 31.7902 42.3832C31.8388 42.3832 31.8854 42.3639 31.9197 42.3296C31.9541 42.2953 31.9734 42.2487 31.9734 42.2001V39.5342L34.506 39.5345V42.2001C34.506 42.2487 34.5253 42.2953 34.5596 42.3296C34.594 42.3639 34.6406 42.3832 34.6891 42.3832C34.7377 42.3832 34.7843 42.3639 34.8186 42.3296C34.853 42.2953 34.8722 42.2487 34.8722 42.2001V39.5345L37.4049 39.5347V42.2001C37.4049 42.2487 37.4242 42.2953 37.4585 42.3296C37.4928 42.3639 37.5394 42.3832 37.588 42.3832C37.6366 42.3832 37.6831 42.3639 37.7175 42.3296C37.7518 42.2953 37.7711 42.2487 37.7711 42.2001V39.5349L41.2404 39.5352C41.2721 39.5353 41.3035 39.529 41.3329 39.5169C41.3622 39.5047 41.3888 39.4869 41.4113 39.4645C41.4337 39.4421 41.4515 39.4154 41.4636 39.3861C41.4758 39.3568 41.482 39.3253 41.482 39.2936L41.4822 36.679H43.2921C43.3407 36.679 43.3873 36.6597 43.4216 36.6254C43.456 36.591 43.4752 36.5444 43.4752 36.4959C43.4752 36.4473 43.456 36.4007 43.4216 36.3664C43.3873 36.332 43.3407 36.3127 43.2921 36.3127H41.4822L41.4825 33.7801H43.2921C43.3407 33.7801 43.3873 33.7608 43.4216 33.7265C43.456 33.6921 43.4752 33.6456 43.4752 33.597C43.4752 33.5484 43.456 33.5018 43.4216 33.4675C43.3873 33.4332 43.3407 33.4139 43.2921 33.4139H41.4825L41.4827 30.8812H43.2925Z" fill="#6E72FF"/>
<path d="M39.8759 38.0747L27.0501 38.0735L27.0513 26.3125L39.8771 26.3137L39.8759 38.0747ZM27.2916 37.832L39.6344 37.8332L39.6355 26.5554L27.2927 26.5541L27.2916 37.832Z" fill="#F7EDE5"/>
<path d="M33.2834 34.1553L33.1605 33.269H32.339L32.2161 34.1553L31.5564 34.1551L32.2941 29.6274H33.2579L33.9949 34.1554L33.2834 34.1553ZM32.4297 32.6546H33.0701L32.747 30.3713L32.4297 32.6546ZM34.3312 34.1554L34.3316 29.6275L35.043 29.6276L35.0426 34.1555L34.3312 34.1554ZM29.9219 58.5745H45.1605C46.3239 58.5745 47.267 57.6314 47.267 56.468V53.5099C47.267 52.3465 46.3239 51.4034 45.1605 51.4034H44.1165L42.4864 50.0289L43.187 51.4034H29.922C28.7586 51.4034 27.8155 52.3465 27.8155 53.5099V56.468C27.8154 57.6314 28.7585 58.5745 29.9219 58.5745Z" fill="#F7EDE5"/>
<path d="M41.5101 55.3674C41.7852 55.3674 42.0081 55.1444 42.0081 54.8694C42.0081 54.5944 41.7852 54.3714 41.5101 54.3714C41.2351 54.3714 41.0121 54.5944 41.0121 54.8694C41.0121 55.1444 41.2351 55.3674 41.5101 55.3674Z" fill="#412945"/>
<path d="M38.9206 55.3674C39.1957 55.3674 39.4186 55.1444 39.4186 54.8694C39.4186 54.5944 39.1957 54.3714 38.9206 54.3714C38.6456 54.3714 38.4226 54.5944 38.4226 54.8694C38.4226 55.1444 38.6456 55.3674 38.9206 55.3674Z" fill="#412945"/>
<path d="M35.833 54.8694C35.833 54.7373 35.8855 54.6106 35.9789 54.5172C36.0723 54.4238 36.199 54.3713 36.3311 54.3713C36.4632 54.3713 36.5898 54.4238 36.6832 54.5172C36.7767 54.6106 36.8291 54.7373 36.8291 54.8694C36.8291 55.0015 36.7767 55.1282 36.6832 55.2216C36.5898 55.315 36.4632 55.3675 36.3311 55.3675C36.199 55.3675 36.0723 55.315 35.9789 55.2216C35.8855 55.1282 35.833 55.0015 35.833 54.8694ZM33.2435 54.8694C33.2435 54.7373 33.296 54.6106 33.3894 54.5172C33.4828 54.4238 33.6095 54.3713 33.7416 54.3713C33.8737 54.3713 34.0003 54.4238 34.0937 54.5172C34.1872 54.6106 34.2396 54.7373 34.2396 54.8694C34.2396 55.0015 34.1872 55.1282 34.0937 55.2216C34.0003 55.315 33.8737 55.3675 33.7416 55.3675C33.6095 55.3675 33.4828 55.315 33.3894 55.2216C33.296 55.1282 33.2435 55.0015 33.2435 54.8694Z" fill="#412945"/>
<path d="M41.9697 6.87152V11.2004H37.6409V6.87152H41.9697Z" fill="#412945"/>
<path d="M19.2115 47.2593V51.5882H14.8826V47.2593H19.2115Z" fill="#412945"/>
<path d="M46.2988 11.2004V15.5293H41.9699V11.2004H46.2988Z" fill="#6E72FF"/>
<path d="M4.2865 30.9473H8.61537V35.2761H4.2865V30.9473Z" fill="#412945"/>
<path d="M8.61537 26.6183H12.9442V30.9472H8.61537V26.6183Z" fill="#6E72FF"/>
<path d="M59.6281 31.6553V35.9841H55.2992V31.6553H59.6281Z" fill="#6E72FF"/>
<path d="M54.3484 46.8569H52.1604L53.7075 45.3097C53.7392 45.2779 53.7571 45.2348 53.7571 45.1898C53.7571 45.1448 53.7392 45.1017 53.7075 45.0699C53.6756 45.0382 53.6325 45.0203 53.5876 45.0203C53.5426 45.0203 53.4995 45.0382 53.4676 45.0699L51.9205 46.617V44.429C51.9205 44.384 51.9026 44.3409 51.8708 44.3091C51.8391 44.2774 51.7959 44.2595 51.751 44.2595C51.706 44.2595 51.6629 44.2774 51.6311 44.3091C51.5993 44.3409 51.5815 44.384 51.5815 44.429V46.617L50.0344 45.0699C50.0025 45.0382 49.9594 45.0203 49.9144 45.0203C49.8695 45.0203 49.8264 45.0382 49.7945 45.0699C49.7627 45.1017 49.7449 45.1448 49.7449 45.1898C49.7449 45.2348 49.7627 45.2779 49.7945 45.3097L51.3416 46.8569H49.1537C49.1088 46.8569 49.0657 46.8747 49.0339 46.9065C49.0021 46.9383 48.9842 46.9814 48.9842 47.0264C48.9842 47.0713 49.0021 47.1144 49.0339 47.1462C49.0657 47.178 49.1088 47.1959 49.1537 47.1959H51.3416L49.7945 48.743C49.7709 48.7668 49.7549 48.797 49.7484 48.8298C49.742 48.8627 49.7454 48.8967 49.7582 48.9277C49.771 48.9586 49.7927 48.9851 49.8205 49.0037C49.8483 49.0224 49.881 49.0324 49.9145 49.0325C49.9579 49.0325 50.0012 49.0159 50.0345 48.9829L51.5816 47.4357V49.6236C51.5816 49.6686 51.5995 49.7117 51.6313 49.7435C51.6631 49.7753 51.7062 49.7931 51.7511 49.7931C51.7961 49.7931 51.8392 49.7753 51.871 49.7435C51.9028 49.7117 51.9206 49.6686 51.9206 49.6236V47.4357L53.4677 48.9829C53.4999 49.013 53.5425 49.0295 53.5866 49.0288C53.6306 49.0281 53.6727 49.0103 53.7039 48.9791C53.735 48.948 53.7529 48.9059 53.7536 48.8618C53.7543 48.8178 53.7379 48.7752 53.7077 48.743L52.1606 47.1959H54.3486C54.3709 47.1959 54.3929 47.1915 54.4135 47.1829C54.434 47.1744 54.4527 47.1619 54.4684 47.1461C54.4842 47.1304 54.4966 47.1117 54.5051 47.0911C54.5136 47.0705 54.518 47.0485 54.518 47.0262C54.518 47.004 54.5136 46.9819 54.505 46.9614C54.4965 46.9408 54.484 46.9222 54.4683 46.9064C54.4525 46.8907 54.4338 46.8782 54.4132 46.8697C54.3927 46.8612 54.3706 46.8569 54.3484 46.8569ZM32.3732 8.20449H30.1854L31.7325 6.65737C31.7642 6.62552 31.7821 6.58239 31.7821 6.53743C31.7821 6.49246 31.7642 6.44933 31.7325 6.41749C31.7006 6.38578 31.6575 6.36797 31.6126 6.36797C31.5676 6.36797 31.5245 6.38578 31.4926 6.41749L29.9455 7.96462V5.77662C29.9455 5.75436 29.9411 5.73232 29.9326 5.71175C29.9241 5.69119 29.9116 5.6725 29.8958 5.65676C29.8801 5.64102 29.8614 5.62854 29.8409 5.62002C29.8203 5.6115 29.7983 5.60712 29.776 5.60712C29.7537 5.60712 29.7317 5.6115 29.7111 5.62002C29.6906 5.62854 29.6719 5.64102 29.6561 5.65676C29.6404 5.6725 29.6279 5.69119 29.6194 5.71175C29.6109 5.73232 29.6065 5.75436 29.6065 5.77662V7.96462L28.0592 6.41749C28.0274 6.38578 27.9843 6.36797 27.9393 6.36797C27.8944 6.36797 27.8512 6.38578 27.8194 6.41749C27.7876 6.44933 27.7698 6.49246 27.7698 6.53743C27.7698 6.58239 27.7876 6.62552 27.8194 6.65737L29.3665 8.20449H27.1786C27.1337 8.20449 27.0906 8.22235 27.0588 8.25414C27.027 8.28592 27.0091 8.32904 27.0091 8.37399C27.0091 8.41895 27.027 8.46206 27.0588 8.49385C27.0906 8.52563 27.1337 8.54349 27.1786 8.54349H29.3665L27.8194 10.0906C27.7958 10.1144 27.7798 10.1446 27.7733 10.1775C27.7668 10.2103 27.7702 10.2444 27.7831 10.2753C27.7959 10.3062 27.8176 10.3327 27.8454 10.3513C27.8732 10.37 27.9059 10.38 27.9394 10.3801C27.9827 10.3801 28.0261 10.3635 28.0594 10.3305L29.6065 8.78337V10.9714C29.6065 11.0163 29.6243 11.0594 29.6561 11.0912C29.6879 11.123 29.731 11.1409 29.776 11.1409C29.8209 11.1409 29.8641 11.123 29.8958 11.0912C29.9276 11.0594 29.9455 11.0163 29.9455 10.9714V8.78337L31.4926 10.3305C31.5248 10.3606 31.5674 10.3771 31.6114 10.3764C31.6555 10.3757 31.6976 10.3579 31.7287 10.3267C31.7599 10.2956 31.7777 10.2535 31.7785 10.2095C31.7792 10.1654 31.7627 10.1228 31.7326 10.0906L30.1855 8.54349H32.3734C32.3956 8.54348 32.4177 8.53909 32.4382 8.53057C32.4588 8.52204 32.4775 8.50955 32.4932 8.4938C32.5089 8.47806 32.5214 8.45937 32.5299 8.4388C32.5384 8.41823 32.5428 8.39619 32.5428 8.37393C32.5428 8.35167 32.5384 8.32963 32.5299 8.30907C32.5214 8.28851 32.5089 8.26983 32.4931 8.25409C32.4774 8.23836 32.4587 8.22588 32.4381 8.21737C32.4175 8.20886 32.3955 8.20448 32.3732 8.20449ZM14.7746 38.1497H12.5866L14.1337 36.6026C14.1655 36.5708 14.1833 36.5276 14.1833 36.4827C14.1833 36.4377 14.1655 36.3946 14.1337 36.3627C14.1019 36.331 14.0588 36.3132 14.0138 36.3132C13.9689 36.3132 13.9257 36.331 13.8939 36.3627L12.3467 37.9099V35.7219C12.3467 35.6769 12.3289 35.6338 12.2971 35.602C12.2653 35.5702 12.2222 35.5524 12.1772 35.5524C12.1323 35.5524 12.0892 35.5702 12.0574 35.602C12.0256 35.6338 12.0077 35.6769 12.0077 35.7219V37.9099L10.4606 36.3627C10.4288 36.331 10.3856 36.3132 10.3407 36.3132C10.2957 36.3132 10.2526 36.331 10.2207 36.3627C10.189 36.3946 10.1712 36.4377 10.1712 36.4827C10.1712 36.5276 10.189 36.5708 10.2207 36.6026L11.7679 38.1497H9.57999C9.53504 38.1497 9.49192 38.1676 9.46014 38.1994C9.42835 38.2312 9.41049 38.2743 9.41049 38.3192C9.41049 38.3642 9.42835 38.4073 9.46014 38.4391C9.49192 38.4709 9.53504 38.4887 9.57999 38.4887H11.768L10.2209 40.0359C10.1972 40.0596 10.1811 40.0898 10.1746 40.1227C10.1681 40.1556 10.1715 40.1896 10.1843 40.2206C10.1972 40.2515 10.2189 40.278 10.2467 40.2966C10.2746 40.3153 10.3074 40.3252 10.3409 40.3252C10.3842 40.3252 10.4276 40.3087 10.4609 40.2757L12.008 38.7286V40.9165C12.008 40.9614 12.0259 41.0046 12.0576 41.0363C12.0894 41.0681 12.1325 41.086 12.1775 41.086C12.2224 41.086 12.2656 41.0681 12.2973 41.0363C12.3291 41.0046 12.347 40.9614 12.347 40.9165V38.7286L13.8941 40.2757C13.926 40.3075 13.9691 40.3254 14.0141 40.3254C14.0591 40.3254 14.1023 40.3075 14.1341 40.2757C14.1659 40.2439 14.1837 40.2008 14.1837 40.1558C14.1837 40.1108 14.1659 40.0677 14.1341 40.0359L12.587 38.4887H14.775C14.8199 38.4887 14.863 38.4708 14.8948 38.439C14.9265 38.4071 14.9444 38.364 14.9443 38.3191C14.9443 38.2741 14.9263 38.231 14.8945 38.1993C14.8627 38.1675 14.8196 38.1497 14.7746 38.1497Z" fill="#412945"/>
</g>
<defs>
<clipPath id="clip0_237_173">
<rect width="64" height="64" fill="white"/>
</clipPath>
</defs>
</svg>
