<svg width="15" height="17" viewBox="0 0 15 17" fill="none" xmlns="http://www.w3.org/2000/svg">
<g clip-path="url(#clip0_237_655)">
<g clip-path="url(#clip1_237_655)">
<g clip-path="url(#clip2_237_655)">
<path d="M13.8114 2.45556C13.8114 2.32613 13.7065 2.22119 13.5771 2.22119C13.4476 2.22119 13.3427 2.32613 13.3427 2.45556V12.9375H2.4483V0.658691H3.57596V3.442C3.57596 3.53735 3.63374 3.62319 3.72205 3.65913C3.81033 3.695 3.91164 3.67388 3.97821 3.60557L4.82214 2.73941L5.66611 3.60557C5.71111 3.65175 5.77199 3.67641 5.83402 3.67641C5.86371 3.67641 5.89367 3.67075 5.92227 3.65913C6.01058 3.62322 6.06836 3.53738 6.06836 3.442V0.658691H13.3427V1.51806C13.3427 1.6475 13.4477 1.75244 13.5771 1.75244C13.7065 1.75244 13.8115 1.6475 13.8115 1.51806V0.424316C13.8115 0.294878 13.7065 0.189941 13.5771 0.189941H2.21396C1.77936 0.189941 1.37089 0.359035 1.06386 0.666097C0.756833 0.97316 0.587708 1.3816 0.587708 1.81619V14.5636L0.58777 14.5648C0.588364 15.461 1.31761 16.1899 2.21392 16.1899H13.5772C13.7066 16.1899 13.8116 16.085 13.8116 15.9555L13.8114 2.45556ZM5.59958 0.658691V2.86563L4.98999 2.24C4.94586 2.19472 4.88533 2.16919 4.82211 2.16919C4.75889 2.16919 4.69836 2.19472 4.65424 2.24L4.04467 2.86563V0.658691H5.59958ZM1.3953 0.997535C1.55755 0.835316 1.75961 0.727347 1.97955 0.68241V12.9546C1.62077 13.0067 1.29964 13.1761 1.05646 13.4229V1.81619C1.05646 1.50678 1.1768 1.21606 1.3953 0.997535ZM2.21392 15.7211C1.57571 15.7211 1.05649 15.2019 1.05649 14.5637C1.05649 13.9255 1.57571 13.4062 2.21392 13.4062H13.3428V13.7187H3.90396C3.77452 13.7187 3.66958 13.8236 3.66958 13.953C3.66958 14.0825 3.77452 14.1874 3.90396 14.1874H13.3427V14.9399H2.21396C2.00649 14.9399 1.83771 14.7711 1.83771 14.5636C1.83771 14.3562 2.00649 14.1874 2.21396 14.1874H2.96646C3.09589 14.1874 3.20083 14.0825 3.20083 13.953C3.20083 13.8236 3.09589 13.7187 2.96646 13.7187H2.21396C1.74802 13.7187 1.36896 14.0977 1.36896 14.5636C1.36896 15.0296 1.74802 15.4087 2.21396 15.4087H13.3428V15.7211H2.21392Z" fill="#F39200"/>
<path d="M4.85045 4.08057C4.18111 4.08057 3.63654 4.62514 3.63654 5.29448V8.28339C3.63654 8.95273 4.18111 9.49729 4.85045 9.49729H10.2461C10.9155 9.49729 11.4601 8.95273 11.4601 8.28339V5.29448C11.4601 4.62514 10.9155 4.08057 10.2461 4.08057H4.85045ZM10.9913 5.29448V8.28339C10.9913 8.69426 10.657 9.02854 10.2461 9.02854H4.85045C4.43957 9.02854 4.10529 8.69426 4.10529 8.28339V5.29448C4.10529 4.88361 4.43957 4.54933 4.85045 4.54933H10.2461C10.6571 4.54933 10.9913 4.88361 10.9913 5.29448Z" fill="#F39200"/>
<path d="M9.74928 5.93311H5.34649C5.21706 5.93311 5.11212 6.03805 5.11212 6.16749C5.11212 6.29693 5.21706 6.40186 5.34649 6.40186H9.74928C9.87871 6.40186 9.98365 6.29693 9.98365 6.16749C9.98365 6.03805 9.87871 5.93311 9.74928 5.93311Z" fill="#F39200"/>
<path d="M9.74928 7.17529H5.34649C5.21706 7.17529 5.11212 7.28023 5.11212 7.40967C5.11212 7.5391 5.21706 7.64404 5.34649 7.64404H9.74928C9.87871 7.64404 9.98365 7.5391 9.98365 7.40967C9.98365 7.28023 9.87871 7.17529 9.74928 7.17529Z" fill="#F39200"/>
</g>
</g>
</g>
<defs>
<clipPath id="clip0_237_655">
<rect width="14" height="16" fill="white" transform="translate(0.200012 0.189941)"/>
</clipPath>
<clipPath id="clip1_237_655">
<rect width="14" height="16" fill="white" transform="translate(0.200012 0.189941)"/>
</clipPath>
<clipPath id="clip2_237_655">
<rect width="14" height="16" fill="white" transform="translate(0.200012 0.189941)"/>
</clipPath>
</defs>
</svg>
