<svg width="24" height="24" viewBox="0 0 24 24" fill="none" xmlns="http://www.w3.org/2000/svg">
<path d="M12 2C10.0222 2 8.08879 2.58649 6.4443 3.6853C4.79981 4.78412 3.51809 6.3459 2.76121 8.17317C2.00433 10.0004 1.8063 12.0111 2.19215 13.9509C2.578 15.8907 3.53041 17.6725 4.92894 19.0711C6.32746 20.4696 8.10929 21.422 10.0491 21.8079C11.9889 22.1937 13.9996 21.9957 15.8268 21.2388C17.6541 20.4819 19.2159 19.2002 20.3147 17.5557C21.4135 15.9112 22 13.9778 22 12C22 10.6868 21.7413 9.38642 21.2388 8.17317C20.7363 6.95991 19.9997 5.85752 19.0711 4.92893C18.1425 4.00035 17.0401 3.26375 15.8268 2.7612C14.6136 2.25866 13.3132 2 12 2ZM17.68 11.54L15.55 13.72L16.05 16.82C16.0846 17.0084 16.0644 17.2029 15.9917 17.3802C15.9191 17.5574 15.797 17.7101 15.64 17.82C15.4858 17.927 15.3046 17.9884 15.1172 17.9972C14.9297 18.006 14.7436 17.962 14.58 17.87L12 16.42L9.4 17.85C9.25458 17.9356 9.08877 17.9805 8.92 17.98C8.71269 17.9816 8.51 17.9187 8.34 17.8C8.18304 17.6901 8.06096 17.5374 7.98827 17.3602C7.91559 17.1829 7.89536 16.9884 7.93 16.8L8.44 13.7L6.3 11.54C6.17064 11.4082 6.08031 11.2431 6.03904 11.063C5.99778 10.883 6.00718 10.695 6.06621 10.52C6.12524 10.345 6.23159 10.1898 6.37347 10.0715C6.51535 9.95322 6.68722 9.87656 6.87 9.85L9.78 9.4L11.09 6.62C11.1644 6.43894 11.2902 6.28368 11.452 6.17347C11.6137 6.06326 11.8043 6.00294 12 6C12.1902 5.99864 12.3768 6.05154 12.538 6.1525C12.6992 6.25346 12.8282 6.39829 12.91 6.57L14.21 9.4L17.12 9.85C17.3021 9.8772 17.4732 9.95416 17.6143 10.0724C17.7555 10.1906 17.8613 10.3455 17.92 10.52C17.9783 10.6956 17.9867 10.8839 17.9443 11.064C17.9019 11.244 17.8104 11.4088 17.68 11.54Z" fill="#F39200"/>
</svg>
